<svg width="5" height="10" viewBox="0 0 5 10" fill="none" xmlns="http://www.w3.org/2000/svg">
<path fill-rule="evenodd" clip-rule="evenodd" d="M0.104897 0.601684C0.138064 0.569452 0.177465 0.543879 0.220844 0.52643C0.264222 0.508982 0.310725 0.5 0.35769 0.5C0.404654 0.5 0.451158 0.508982 0.494536 0.52643C0.537914 0.543879 0.577315 0.569452 0.610483 0.601684L4.8951 4.75504C4.92835 4.78719 4.95473 4.82539 4.97273 4.86744C4.99073 4.90949 5 4.95456 5 5.00009C5 5.04562 4.99073 5.09069 4.97273 5.13274C4.95473 5.17479 4.92835 5.21299 4.8951 5.24514L0.610483 9.3985C0.543438 9.46349 0.452505 9.5 0.35769 9.5C0.262874 9.5 0.171942 9.46349 0.104897 9.3985C0.0378524 9.33351 0.000186941 9.24536 0.000186941 9.15345C0.000186941 9.06154 0.0378524 8.97339 0.104897 8.9084L4.13744 5.00009L0.104897 1.09178C0.0716462 1.05963 0.0452651 1.02144 0.0272651 0.979386C0.00926505 0.937337 0 0.892258 0 0.846732C0 0.801206 0.00926505 0.756128 0.0272651 0.714078C0.0452651 0.672029 0.0716462 0.633835 0.104897 0.601684Z" fill="#CBCEFF"/>
</svg>
