<svg width="12" height="12" viewBox="0 0 12 12" fill="none" xmlns="http://www.w3.org/2000/svg">
<path fill-rule="evenodd" clip-rule="evenodd" d="M9.25785 5.40324C9.28173 5.42536 9.30067 5.45162 9.31359 5.48054C9.32652 5.50946 9.33317 5.54046 9.33317 5.57177C9.33317 5.60308 9.32652 5.63408 9.31359 5.663C9.30067 5.69192 9.28173 5.71819 9.25785 5.7403L6.18129 8.59671C6.15747 8.61888 6.12918 8.63647 6.09803 8.64847C6.06688 8.66047 6.03349 8.66665 5.99977 8.66665C5.96605 8.66665 5.93266 8.66047 5.90151 8.64847C5.87036 8.63647 5.84207 8.61888 5.81825 8.59671L2.74169 5.7403C2.69355 5.6956 2.6665 5.63498 2.6665 5.57177C2.6665 5.50856 2.69355 5.44794 2.74169 5.40324C2.78983 5.35855 2.85513 5.33344 2.92321 5.33344C2.99129 5.33344 3.05658 5.35855 3.10472 5.40324L5.99977 8.09161L8.89481 5.40324C8.91863 5.38108 8.94692 5.36349 8.97807 5.35149C9.00922 5.33949 9.04261 5.33331 9.07633 5.33331C9.11005 5.33331 9.14345 5.33949 9.17459 5.35149C9.20574 5.36349 9.23403 5.38108 9.25785 5.40324Z" fill="white" stroke="white"/>
</svg>
