<svg width="18" height="18" viewBox="0 0 18 18" fill="none" xmlns="http://www.w3.org/2000/svg">
<path fill-rule="evenodd" clip-rule="evenodd" d="M13.887 8.1049C13.9228 8.13806 13.9512 8.17747 13.9706 8.22084C13.99 8.26422 14 8.31073 14 8.35769C14 8.40465 13.99 8.45116 13.9706 8.49454C13.9512 8.53791 13.9228 8.57732 13.887 8.61048L9.27217 12.8951C9.23645 12.9284 9.19401 12.9547 9.14729 12.9727C9.10057 12.9907 9.05048 13 8.9999 13C8.94931 13 8.89923 12.9907 8.85251 12.9727C8.80578 12.9547 8.76335 12.9284 8.72762 12.8951L4.11278 8.61048C4.04057 8.54344 4 8.45251 4 8.35769C4 8.26287 4.04057 8.17194 4.11278 8.1049C4.18499 8.03785 4.28293 8.00019 4.38506 8.00019C4.48718 8.00019 4.58512 8.03785 4.65733 8.1049L8.9999 12.1374L13.3425 8.1049C13.3782 8.07165 13.4206 8.04527 13.4673 8.02727C13.5141 8.00927 13.5642 8 13.6147 8C13.6653 8 13.7154 8.00927 13.7621 8.02727C13.8089 8.04527 13.8513 8.07165 13.887 8.1049Z" fill="white" stroke="white"/>
</svg>
